<svg preserveAspectRatio="none" overflow="visible" style="display: block;" width="22" height="22" viewBox="0 0 22 22" fill="none" xmlns="http://www.w3.org/2000/svg">
<g id="Nav-Icons" clip-path="url(#clip0_0_1697)">
<circle id="Ellipse 12" cx="11" cy="11" r="9" stroke="#1E2939" stroke-width="2"/>
<g id="Group 18">
<path id="Polygon 1" d="M7.55927 16.0165C7.15674 16.3273 6.6012 15.9086 6.78904 15.436L9.01229 9.84248C9.13416 9.53587 9.51436 9.42928 9.77785 9.62785L12.3188 11.5427C12.5823 11.7413 12.5847 12.1361 12.3235 12.3378L7.55927 16.0165Z" fill="#1E2939"/>
<path id="Polygon 2" d="M14.3481 5.97386C14.77 5.68168 15.3057 6.13879 15.0835 6.6014L12.3806 12.2284C12.2386 12.5242 11.855 12.6053 11.6054 12.3923L9.17609 10.3192C8.9265 10.1062 8.94626 9.71456 9.21601 9.52777L14.3481 5.97386Z" fill="#1E2939"/>
</g>
<circle id="Ellipse 13" cx="11" cy="11" r="1" fill="#F4F5F6"/>
<g id="Frame 2147223895">
</g>
<g id="Frame 2147223896">
</g>
</g>
<defs>
<clipPath id="clip0_0_1697">
<rect width="22" height="22" fill="white"/>
</clipPath>
</defs>
</svg>
