<svg preserveAspectRatio="none" overflow="visible" style="display: block;" width="24" height="24" viewBox="0 0 24 24" fill="none" xmlns="http://www.w3.org/2000/svg">
<g id="Masonry Grid">
<g id="Vector">
</g>
<path id="Vector_2" d="M3.75 5.25H20.25V16.5C20.25 16.6989 20.171 16.8897 20.0303 17.0303C19.8897 17.171 19.6989 17.25 19.5 17.25H15.75C15.5511 17.25 15.3603 17.171 15.2197 17.0303C15.079 16.8897 15 16.6989 15 16.5V14.25H9V19.5C9 19.6989 8.92098 19.8897 8.78033 20.0303C8.63968 20.171 8.44891 20.25 8.25 20.25H4.5C4.30109 20.25 4.11032 20.171 3.96967 20.0303C3.82902 19.8897 3.75 19.6989 3.75 19.5V5.25Z" stroke="#1E2939" stroke-width="2" stroke-linecap="round" stroke-linejoin="round"/>
<path id="Vector_3" d="M9 11.25H3.75" stroke="#1E2939" stroke-width="2" stroke-linecap="round" stroke-linejoin="round"/>
<path id="Vector_4" d="M9 5.25V14.25" stroke="#1E2939" stroke-width="2" stroke-linecap="round" stroke-linejoin="round"/>
<path id="Vector_5" d="M15 11.25H20.25" stroke="#1E2939" stroke-width="2" stroke-linecap="round" stroke-linejoin="round"/>
<path id="Vector_6" d="M15 5.25V14.25" stroke="#1E2939" stroke-width="1.5" stroke-linecap="round" stroke-linejoin="round"/>
<path id="Line 56" d="M4.50232 20.2442L19.8336 20.2501C20.1112 20.2502 20.3357 20.0242 20.3338 19.7466L20.2446 7.25935M14.9965 6.44577L15.0012 19.4364" stroke="#1E2939" stroke-width="2" stroke-linecap="round"/>
</g>
</svg>
